<?xml version="1.0" standalone="no"?>
<!DOCTYPE svg PUBLIC "-//W3C//DTD SVG 20010904//EN"
 "http://www.w3.org/TR/2001/REC-SVG-20010904/DTD/svg10.dtd">
<svg version="1.0" xmlns="http://www.w3.org/2000/svg"
 width="447.000000pt" height="559.000000pt" viewBox="0 0 447.000000 559.000000"
 preserveAspectRatio="xMidYMid meet">
<metadata>
Created by potrace 1.16, written by Peter Selinger 2001-2019
</metadata>
<g transform="translate(0.000000,559.000000) scale(0.100000,-0.100000)"
fill="#000000" stroke="none">
<path d="M0 2795 l0 -2795 280 0 c157 0 280 4 280 9 0 5 11 12 24 15 28 7 38
50 31 137 -5 74 -8 83 -25 91 -24 11 47 9 115 -3 33 -6 66 -13 72 -17 7 -5 8
-30 2 -82 -5 -41 -11 -92 -13 -113 l-4 -37 1854 0 1854 0 0 2795 0 2795 -2235
0 -2235 0 0 -2795z m2054 2450 c-4 -9 0 -15 8 -15 8 0 22 -6 31 -12 15 -12 14
-22 -8 -135 -13 -68 -22 -137 -18 -155 3 -18 6 -62 7 -98 1 -36 5 -71 10 -78
11 -19 36 -14 36 7 0 10 9 29 19 42 16 21 41 142 30 145 -2 0 1 7 8 15 7 8 12
37 12 65 -1 64 18 134 35 134 13 0 14 -34 5 -87 -3 -19 3 -67 8 -55 2 6 11 12
18 12 13 0 92 149 100 190 9 45 21 39 23 -10 1 -33 -4 -59 -14 -75 -14 -21
-14 -30 -5 -54 14 -32 9 -97 -9 -131 -6 -12 -9 -31 -7 -42 3 -11 -1 -31 -10
-45 -9 -13 -13 -26 -9 -30 3 -3 6 -1 6 5 0 6 7 9 15 6 8 -4 15 -1 15 5 0 6 4
11 9 11 4 0 6 -12 4 -27 -4 -24 -3 -25 7 -10 6 9 16 14 22 11 8 -5 9 -1 5 10
-4 10 -3 15 3 11 6 -3 10 -2 10 4 0 6 7 7 17 4 11 -4 14 -3 9 5 -4 7 -16 12
-27 12 -15 0 -18 5 -15 25 3 14 13 37 24 53 21 30 37 84 47 152 3 25 11 64 17
87 9 37 14 42 35 41 40 -4 116 -91 120 -138 13 -157 14 -197 2 -225 -7 -16
-11 -36 -10 -42 2 -16 -14 -17 -40 -3 -11 6 -24 8 -31 4 -11 -7 39 -40 54 -36
12 3 21 -42 9 -46 -6 -2 -11 -8 -11 -13 0 -6 5 -7 10 -4 13 8 13 -1 -2 -25 -9
-13 -9 -27 -2 -47 13 -37 39 -42 40 -8 2 19 -2 25 -12 21 -22 -8 -17 18 6 32
14 9 26 9 39 3 10 -6 21 -8 24 -5 3 3 8 -4 12 -15 3 -12 17 -24 31 -27 17 -4
24 -13 24 -30 0 -14 7 -27 15 -30 19 -8 22 -130 3 -137 -10 -3 -9 -8 3 -18 9
-8 19 -26 21 -41 5 -27 -4 -34 -34 -29 -5 0 -8 -6 -8 -15 0 -9 -9 -32 -21 -51
-23 -36 -20 -63 7 -63 11 0 14 -5 9 -17 -4 -10 -10 -26 -12 -35 -7 -24 -23
-23 -23 2 0 13 -5 18 -15 14 -8 -4 -15 -10 -15 -16 0 -5 5 -6 10 -3 13 8 13
-31 -1 -57 -25 -46 -53 -68 -86 -68 -18 0 -33 -4 -33 -10 0 -5 -7 -10 -15 -10
-8 0 -14 4 -12 8 1 4 -10 20 -25 35 -15 14 -39 43 -55 64 -41 53 -94 106 -128
129 l-30 19 29 -50 c16 -27 46 -75 66 -106 21 -31 48 -75 59 -98 12 -23 31
-51 41 -61 11 -11 20 -32 19 -47 0 -28 -1 -28 -11 -5 -12 24 -34 31 -24 7 9
-26 -12 -17 -35 15 -20 26 -58 53 -44 31 3 -5 -1 -11 -7 -14 -10 -3 -11 -9 0
-26 25 -43 8 -42 -65 5 -36 23 -58 32 -63 25 -7 -13 -144 -5 -172 10 -9 5 -31
9 -48 9 -39 0 -70 16 -70 35 0 8 -4 15 -10 15 -5 0 -10 -4 -10 -10 0 -5 -6
-10 -14 -10 -8 0 -12 8 -9 23 7 36 93 66 93 32 0 -8 7 -15 16 -15 10 0 13 6 9
19 -3 11 2 28 14 42 18 23 25 24 113 21 l93 -3 18 30 c22 37 22 44 -3 36 -11
-3 -53 1 -94 10 -72 16 -116 14 -116 -6 0 -5 -11 -9 -24 -9 -44 0 -85 22 -106
55 -19 31 -20 36 -7 57 8 13 18 39 22 58 4 19 13 46 21 60 24 45 64 156 64
179 0 28 -37 111 -50 111 -5 0 -12 -5 -15 -10 -3 -6 -18 -7 -33 -4 -15 3 -22
2 -16 -3 6 -4 18 -31 26 -60 16 -55 10 -85 -12 -58 -7 8 -17 15 -23 15 -6 0
-1 -10 11 -23 12 -13 22 -27 22 -33 0 -5 -4 -4 -8 1 -23 33 -72 55 -125 55
-38 0 -61 5 -72 16 -19 20 -16 24 27 35 26 7 20 8 -29 6 -35 -2 -63 0 -63 5 0
4 5 8 10 8 6 0 10 7 10 15 0 7 8 19 18 24 14 8 14 11 2 12 -8 1 -18 1 -22 0
-5 0 -8 3 -8 9 0 6 4 10 9 10 5 0 7 9 4 20 -6 22 -6 22 102 24 33 1 69 -3 80
-8 11 -6 26 -9 34 -7 9 2 12 -4 8 -18 -3 -14 -1 -18 9 -14 19 7 18 53 -1 53
-13 0 -14 4 -5 20 8 15 8 20 -3 20 -7 0 -18 -5 -24 -11 -7 -7 -12 -6 -16 5 -5
11 0 16 13 16 11 0 20 4 20 10 0 13 -53 9 -62 -5 -5 -6 -8 -5 -8 3 0 9 -11 13
-32 12 -70 -4 -82 -1 -67 16 7 8 26 22 42 31 20 10 26 18 18 22 -8 5 0 16 23
32 42 28 47 44 11 35 -29 -7 -33 8 -7 24 16 11 16 11 0 6 -29 -9 -21 6 32 64
36 40 50 63 50 84 0 17 10 40 22 53 25 26 71 32 62 8z m-118 -680 c16 -8 25
-15 19 -15 -5 0 -2 -5 7 -11 11 -6 15 -16 11 -26 -5 -13 -2 -15 12 -10 17 7
17 6 0 -20 -10 -16 -27 -38 -38 -50 -19 -22 -20 -24 -3 -42 17 -19 17 -23 1
-70 -17 -52 -37 -65 -63 -39 -19 19 -14 40 20 75 24 24 28 33 15 33 -21 0 -95
-73 -130 -128 -28 -43 -95 -110 -111 -110 -5 0 -13 -6 -17 -14 -7 -11 -11 -10
-18 2 -7 10 -5 20 6 32 15 17 15 18 -4 18 -15 0 -22 9 -27 31 -7 37 3 137 15
145 5 3 9 24 9 47 0 64 8 70 64 56 54 -13 174 -8 202 10 18 12 18 12 -3 8 -13
-3 -23 -1 -23 4 0 5 5 9 10 9 6 0 10 5 10 11 0 6 -12 10 -27 9 -16 -1 -37 -1
-48 -1 -20 2 -20 2 -1 16 11 8 28 15 38 15 10 0 21 7 24 15 8 19 15 19 50 0z
m654 -581 c0 -9 8 -22 17 -29 15 -11 15 -15 4 -29 -11 -13 -11 -16 2 -16 17 0
17 -43 -1 -77 -7 -12 -12 -31 -12 -42 0 -12 -6 -21 -14 -21 -8 0 -17 -7 -20
-16 -5 -12 -14 -14 -37 -9 -30 7 -32 6 -26 -21 6 -32 -1 -56 -14 -48 -5 3 -9
-2 -9 -10 0 -9 -4 -16 -10 -16 -5 0 -10 -7 -10 -15 0 -18 16 -20 23 -2 3 6 5
1 4 -13 -1 -15 -16 -40 -40 -62 -33 -32 -37 -40 -27 -53 10 -12 10 -15 -4 -15
-15 0 -20 -11 -17 -37 2 -14 -29 -6 -42 11 -5 7 -7 2 -4 -10 7 -34 -6 -48 -33
-34 -12 6 -22 10 -23 8 -16 -31 -27 -44 -42 -46 -11 -3 -15 0 -11 7 4 6 2 11
-3 11 -6 0 -11 9 -11 20 0 11 -5 20 -11 20 -5 0 -8 -4 -4 -9 3 -5 1 -12 -5
-16 -5 -3 -10 -1 -10 4 0 19 -17 12 -28 -11 -7 -15 -11 -17 -11 -8 -1 9 -6 5
-14 -10 -16 -31 -41 -33 -45 -2 -3 21 -22 32 -22 12 0 -5 -7 -7 -15 -4 -8 3
-28 -1 -45 -9 -25 -13 -30 -13 -30 -1 0 8 -5 14 -11 14 -5 0 -7 -5 -3 -11 4
-7 1 -10 -7 -7 -8 3 -14 13 -14 24 0 13 -6 18 -17 16 -13 -2 -18 4 -18 23 0
14 -6 25 -12 25 -9 0 -9 3 1 9 12 8 12 12 -3 26 -16 17 -17 16 -23 -4 -6 -25
-23 -28 -23 -5 0 10 -5 14 -16 10 -8 -3 -12 -2 -9 4 3 6 -1 20 -9 32 -26 36
-20 55 8 29 21 -20 28 -21 65 -11 22 6 41 15 41 20 0 13 58 42 62 31 3 -10 22
-14 51 -12 13 1 17 8 15 29 -3 27 2 29 32 18 9 -4 30 4 48 18 l33 24 -56 7
c-30 3 -57 11 -60 16 -4 5 -25 9 -48 9 -53 0 -85 17 -132 69 -20 22 -40 40
-43 39 -14 -3 -62 22 -62 32 0 6 12 4 30 -5 16 -8 39 -15 52 -15 21 0 23 4 20
43 -3 38 -1 43 25 54 17 8 75 13 139 14 154 1 285 -34 327 -88 l18 -23 34 26
34 25 3 -28 c2 -23 7 -27 26 -25 13 2 31 -2 40 -10 15 -12 16 -11 3 5 -14 18
-7 35 27 64 7 6 14 32 15 57 1 25 5 46 10 46 4 0 7 -7 7 -16z m164 -630 c9 -3
16 -12 16 -20 0 -8 6 -14 14 -14 30 0 43 -27 38 -79 -3 -34 -1 -51 7 -51 6 0
11 -15 11 -32 0 -56 11 -80 31 -75 11 3 19 0 19 -6 0 -7 4 -7 12 1 10 10 10
15 -2 22 -11 7 -6 8 16 4 19 -4 34 -1 38 5 13 21 27 11 15 -11 -66 -122 -360
-469 -472 -554 -31 -24 -62 -44 -67 -44 -6 0 -29 -17 -53 -38 -23 -21 -62 -54
-87 -72 -25 -19 -46 -38 -48 -42 -2 -5 -10 -8 -18 -8 -8 0 -17 -7 -20 -14 -6
-14 -114 -101 -117 -94 -1 1 -15 29 -31 60 -27 55 -50 81 -128 148 -41 34 -48
50 -22 50 8 0 12 5 9 10 -3 6 -2 10 3 10 13 0 82 69 82 82 0 25 37 53 75 56
22 2 45 8 52 14 7 6 23 8 34 5 14 -4 33 3 54 19 17 13 39 24 48 24 19 0 23 15
7 25 -15 9 -12 25 4 25 30 0 26 21 -10 55 l-38 36 70 50 c82 60 86 63 57 55
-51 -16 -4 37 52 59 13 4 15 9 8 12 -7 3 -13 9 -13 14 0 10 80 85 89 82 3 0
14 4 25 9 15 8 16 12 5 19 -11 7 -10 9 4 9 9 0 17 4 17 9 0 13 135 151 147
151 5 0 18 9 28 20 21 23 18 22 39 14z m6 -1729 c17 -9 49 -14 72 -13 32 2 42
-1 40 -10 -2 -11 9 -13 45 -9 26 2 58 8 71 12 19 6 22 4 22 -18 0 -15 -10 -33
-24 -44 -18 -15 -24 -31 -28 -75 -3 -41 -1 -59 8 -62 7 -3 16 -21 19 -40 7
-34 8 -35 31 -19 16 10 24 25 24 42 0 15 6 36 14 47 14 18 15 18 24 -6 11 -28
5 -88 -10 -107 -7 -9 -5 -18 6 -28 14 -14 14 -20 2 -43 -7 -15 -16 -72 -19
-127 -8 -119 -28 -245 -39 -245 -4 0 -8 -4 -8 -10 0 -5 7 -10 15 -10 17 0 20
-16 6 -25 -5 -3 -13 0 -17 6 -9 15 -24 -9 -17 -28 4 -11 8 -11 22 -1 14 12 14
11 3 -4 -23 -29 -47 -30 -106 -4 -43 19 -56 30 -57 48 -2 22 -2 22 -6 2 -4
-20 -7 -21 -44 -12 -22 6 -39 17 -39 24 0 8 -7 14 -15 14 -17 0 -20 -16 -5
-25 18 -11 11 -21 -22 -31 -28 -8 -39 -6 -71 15 -36 23 -37 25 -18 33 24 9 28
28 6 28 -8 0 -15 -4 -15 -10 0 -5 -4 -10 -10 -10 -5 0 -10 7 -10 15 0 8 -4 15
-10 15 -5 0 -7 -7 -4 -15 4 -10 0 -15 -15 -15 -12 0 -21 -5 -21 -11 0 -6 -9
-8 -20 -4 -11 3 -20 2 -20 -3 0 -5 -14 -12 -31 -16 -38 -7 -63 15 -64 57 -1
17 -6 32 -13 35 -7 2 -8 9 -2 20 12 24 41 146 50 213 4 30 12 65 19 77 6 11
11 46 11 77 0 32 7 69 16 87 9 17 14 41 11 55 -3 14 3 33 14 46 27 33 55 12
52 -39 -4 -71 -3 -88 7 -98 7 -7 14 1 22 22 8 19 22 35 34 38 12 3 25 15 28
27 3 12 19 37 35 55 26 28 29 36 18 52 -6 11 -15 20 -19 20 -5 0 -8 11 -8 25
0 29 17 32 60 10z m1314 -1397 c-6 -10 -4 -10 7 0 16 15 29 16 29 1 0 -6 7
-17 15 -25 8 -9 15 -11 15 -6 0 5 8 12 18 16 9 3 22 8 28 11 7 4 10 -7 10 -29
-2 -41 -16 -62 -16 -22 0 24 -2 25 -20 16 -11 -6 -20 -15 -20 -21 0 -6 5 -7
12 -3 6 4 8 3 5 -3 -4 -6 -22 -9 -42 -7 -24 1 -38 -3 -45 -14 -9 -16 -9 -16
-10 1 0 24 -19 21 -30 -5 -7 -19 -9 -20 -9 -5 -1 16 -6 17 -32 12 -31 -7 -31
-6 -25 20 4 15 14 34 22 43 13 12 13 16 2 23 -8 5 8 9 40 9 40 0 51 -3 46 -12z"/>
<path d="M2356 4634 c-14 -15 -26 -35 -26 -45 0 -10 -4 -21 -10 -24 -17 -10
-11 -25 10 -25 11 0 20 5 20 10 0 6 5 10 10 10 6 0 10 -8 10 -18 0 -10 5 -23
12 -30 9 -9 8 -12 -4 -12 -9 0 -20 5 -23 10 -7 12 -35 14 -35 2 0 -11 89 -49
144 -62 77 -17 245 7 173 25 -15 4 -37 5 -50 1 -24 -6 -149 12 -157 24 -3 4
-14 12 -25 18 -31 16 129 7 189 -12 27 -8 53 -13 58 -10 4 3 24 1 44 -5 l36
-10 -18 21 c-19 21 -19 21 1 14 31 -11 -53 71 -91 89 -17 8 -40 15 -49 15 -14
0 -13 -4 6 -21 l24 -20 -53 6 c-56 6 -102 23 -102 37 0 4 6 8 13 8 8 0 8 3 -2
9 -11 7 -7 10 15 14 16 2 1 5 -32 6 -54 1 -64 -2 -88 -25z"/>
</g>
</svg>
